<?xml version="1.0" encoding="UTF-8"?>
<svg width="128px" height="128px" viewBox="0 0 128 128" version="1.1" xmlns="http://www.w3.org/2000/svg" xmlns:xlink="http://www.w3.org/1999/xlink">
    <!-- Generator: Sketch 49.1 (51147) - http://www.bohemiancoding.com/sketch -->
    <title>actionSelect</title>
    <desc>Created with Sketch.</desc>
    <defs></defs>
    <g id="actionSelect" stroke="none" stroke-width="1" fill="none" fill-rule="evenodd">
        <path d="M124.332767,64.5491585 C122.295416,64.5491585 120.665535,66.1966342 120.665535,68.2559787 L120.665535,103.974314 C120.665535,113.145261 113.27674,120.58636 104.2309,120.58636 L23.7691002,120.58636 C14.6960951,120.58636 7.3344652,113.117803 7.3344652,103.974314 L7.3344652,67.7068202 C7.3344652,65.6474756 5.70458404,64 3.6672326,64 C1.62988115,64 0,65.6474756 0,67.7068202 L0,103.974314 C0,117.236492 10.6757216,128 23.7691002,128 L104.2309,128 C117.351443,128 128,117.209035 128,103.974314 L128,68.2559787 C128,66.2240921 126.370119,64.5491585 124.332767,64.5491585 Z" id="Shape" fill="#FFFFFF" fill-rule="nonzero"></path>
        <path d="M61.4311603,90.8965517 C62.137931,91.6137931 63.0893531,92 64.0135917,92 C64.9378304,92 65.8892525,91.6413793 66.5960232,90.8965517 L89.9194563,67.2275862 C91.3601812,65.7655172 91.3601812,63.4206897 89.9194563,61.9586207 C88.4787314,60.4965517 86.1681349,60.4965517 84.72741,61.9586207 L67.6833627,79.2827586 L67.6833627,3.72413793 C67.6833627,1.65517241 66.0523534,0 64.0135917,0 C61.9748301,0 60.3438208,1.65517241 60.3438208,3.72413793 L60.3438208,79.2827586 L43.27259,61.9586207 C41.8318651,60.4965517 39.5212686,60.4965517 38.0805437,61.9586207 C36.6398188,63.4206897 36.6398188,65.7655172 38.0805437,67.2275862 L61.4311603,90.8965517 Z" id="Shape" fill="#FFFFFF" fill-rule="nonzero"></path>
    </g>
</svg>