<?xml version="1.0" encoding="UTF-8"?>
<svg width="128px" height="128px" viewBox="0 0 128 128" version="1.1" xmlns="http://www.w3.org/2000/svg" xmlns:xlink="http://www.w3.org/1999/xlink">
    <!-- Generator: Sketch 49.1 (51147) - http://www.bohemiancoding.com/sketch -->
    <title>actionZoom</title>
    <desc>Created with Sketch.</desc>
    <defs></defs>
    <g id="actionZoom" stroke="none" stroke-width="1" fill="none" fill-rule="evenodd">
        <path d="M126.892881,121.472284 L95.7799956,90.3662971 C104.12597,80.7733925 109.178975,68.2572062 109.178975,54.5773836 C109.178975,24.464745 84.6804169,0 54.5894877,0 C24.4701708,0 1.42108547e-14,24.4931264 1.42108547e-14,54.5773836 C1.42108547e-14,84.6616408 24.4985584,109.154767 54.5894877,109.154767 C68.2723442,109.154767 80.7913063,104.102882 90.3863384,95.7587583 L121.499224,126.864745 C122.237303,127.602661 123.230872,128 124.196052,128 C125.161233,128 126.154802,127.631042 126.892881,126.864745 C128.36904,125.388914 128.36904,122.948115 126.892881,121.472284 Z M7.63628299,54.5773836 C7.63628299,28.6935698 28.6999335,7.66297118 54.5611,7.66297118 C80.4506542,7.66297118 101.485917,28.7219512 101.485917,54.5773836 C101.485917,80.432816 80.4506542,101.520177 54.5611,101.520177 C28.6999335,101.520177 7.63628299,80.4611973 7.63628299,54.5773836 Z" id="Shape" fill="#FFFFFF" fill-rule="nonzero"></path>
    </g>
</svg>