<?xml version="1.0" encoding="UTF-8"?>
<svg width="128px" height="128px" viewBox="0 0 128 128" version="1.1" xmlns="http://www.w3.org/2000/svg" xmlns:xlink="http://www.w3.org/1999/xlink">
    <!-- Generator: Sketch 49.1 (51147) - http://www.bohemiancoding.com/sketch -->
    <title>actionFavourite</title>
    <desc>Created with Sketch.</desc>
    <defs></defs>
    <g id="actionFavourite" stroke="none" stroke-width="1" fill="none" fill-rule="evenodd">
        <path d="M127.824391,48.3714531 C127.40405,47.0232158 126.300652,46.0601892 124.960812,45.8400688 L85.0283331,39.8968186 L67.0587174,2.06362855 C66.454476,0.797936371 65.2197217,-6.66133815e-15 63.8798819,-6.66133815e-15 C62.5400422,-6.66133815e-15 61.3052879,0.797936371 60.7010464,2.09114359 L42.9678731,40.0343938 L3.03539382,46.2527945 C1.69555406,46.4729149 0.592156606,47.4359415 0.171814719,48.7841788 C-0.248527168,50.1324162 0.119271983,51.6182287 1.0913126,52.5812554 L30.0686314,81.9948409 L23.3694326,123.652623 C23.1329903,125.05589 23.684689,126.459157 24.7880865,127.284609 C25.3923279,127.752365 26.1279262,128 26.8635245,128 C27.4414946,128 27.9931933,127.862425 28.5186207,127.559759 L64.168867,107.77644 L99.9241987,127.339639 C100.449626,127.614789 101.001325,127.752365 101.553024,127.752365 C103.497105,127.752365 105.099658,126.073947 105.099658,124.037833 C105.099658,123.735168 105.073387,123.460017 104.994573,123.184867 L98.085203,81.7747206 L126.878622,52.1960447 C127.903206,51.205503 128.244733,49.7196905 127.824391,48.3714531 Z M91.8326174,77.8400688 C90.9919336,78.6930353 90.6241345,79.9312124 90.8343054,81.1418745 L96.8504487,117.269132 L65.7976918,100.292347 C64.7731084,99.7145314 63.5383541,99.7420464 62.4874994,100.292347 L31.539828,117.461737 L37.3458003,81.2794497 C37.5296999,80.0687876 37.1619007,78.8581255 36.321217,78.0051591 L11.2057892,52.4711952 L45.8577235,47.0782459 C47.0136637,46.8856406 48.0119757,46.1427343 48.5111317,45.0421324 L63.9061533,12.1066208 L79.5113458,44.9595873 C80.0367732,46.0601892 81.0350852,46.8030954 82.1910254,46.9957008 L116.869231,52.1685297 L91.8326174,77.8400688 Z" id="Shape" fill="#FFFFFF" fill-rule="nonzero"></path>
    </g>
</svg>