<?xml version="1.0" encoding="UTF-8"?>
<svg width="128px" height="128px" viewBox="0 0 128 128" version="1.1" xmlns="http://www.w3.org/2000/svg" xmlns:xlink="http://www.w3.org/1999/xlink">
    <!-- Generator: Sketch 49.1 (51147) - http://www.bohemiancoding.com/sketch -->
    <title>classic</title>
    <desc>Created with Sketch.</desc>
    <defs></defs>
    <g id="classic" stroke="none" stroke-width="1" fill="none" fill-rule="evenodd">
        <path d="M64.1617699,127.757173 C28.9569042,127.757173 0.417721599,99.2179909 0.417721599,64.0131248 C0.417721599,28.808259 28.9569042,0.269076448 64.1617699,0.269076448 C99.366636,0.269076448 127.905819,28.808259 127.905819,64.0131248 C127.905819,99.2179909 99.366636,127.757173 64.1617699,127.757173 Z" id="circle" fill="#2A839F" fill-rule="nonzero"></path>
        <circle id="Oval" fill-opacity="0.25" fill="#000000" cx="58.4882995" cy="52.2607808" r="32"></circle>
        <circle id="Oval" fill-opacity="0.25" fill="#000000" transform="translate(70.488300, 76.260781) scale(-1, 1) translate(-70.488300, -76.260781) " cx="70.4882995" cy="76.2607808" r="32"></circle>
        <path d="M66.4882978,21.2689207 L66.4882978,36.5281692 C64.0869312,35.3046511 61.3681806,34.614763 58.4882981,34.614763 C48.742672,34.614763 40.8422811,42.5151543 40.8422811,52.2607808 C40.8422811,62.0064074 48.742672,69.9067987 58.4882981,69.9067987 C61.3681806,69.9067987 64.0869312,69.2169106 66.4882995,67.9933845 L66.4882978,83.2526409 C63.9313385,83.9107568 61.2506946,84.2607808 58.4882981,84.2607808 C40.8151869,84.2607808 26.4882995,69.9338928 26.4882995,52.2607808 C26.4882995,34.5876688 40.8151869,20.2607808 58.4882981,20.2607808 C61.2506946,20.2607808 63.9313385,20.6108048 66.4882978,21.2689207 Z" id="Oval" fill="#FFFFFF"></path>
        <path d="M62.4882995,45.2689207 C65.0452588,44.6108048 67.7259028,44.2607808 70.4882992,44.2607808 C88.1614104,44.2607808 102.488298,58.5876688 102.488298,76.2607808 C102.488298,93.9338928 88.1614104,108.260781 70.4882992,108.260781 C67.7259028,108.260781 65.0452588,107.910757 62.4882995,107.252641 L62.4882978,91.9933845 C64.8896662,93.2169106 67.6084167,93.9067987 70.4882992,93.9067987 C80.2339253,93.9067987 88.1343163,86.0064074 88.1343163,76.2607808 C88.1343163,66.5151543 80.2339253,58.614763 70.4882992,58.614763 C67.6084167,58.614763 64.8896662,59.3046511 62.4882995,60.5281692 L62.4882995,45.2689207 Z" id="Oval" fill="#EEEEEE"></path>
    </g>
</svg>