<?xml version="1.0" encoding="UTF-8"?>
<svg width="128px" height="128px" viewBox="0 0 128 128" version="1.1" xmlns="http://www.w3.org/2000/svg" xmlns:xlink="http://www.w3.org/1999/xlink">
    <!-- Generator: Sketch 49.1 (51147) - http://www.bohemiancoding.com/sketch -->
    <title>dropbox</title>
    <desc>Created with Sketch.</desc>
    <defs></defs>
    <g id="dropbox" stroke="none" stroke-width="1" fill="none" fill-rule="evenodd">
        <path d="M63.499782,0 C98.567457,0 127,28.6559819 127,64.0002197 C127,99.3484119 98.5678929,128 63.499782,128 C28.4316711,128 -8.07132139e-14,99.3479725 -8.07132139e-14,64.0002197 C-8.07132139e-14,28.6559819 28.4321071,0 63.499782,0 Z" id="Shape" fill="#1481E2" fill-rule="nonzero"></path>
        <path d="M24,67.3902686 L47.5319705,82 L64,68.9357494 L40.2720652,55 L24,67.3902686 Z M47.5280161,28 L24,42.6018508 L40.2720652,55 L64,41.0680502 C64.0004394,41.0684833 47.5280161,28 47.5280161,28 Z M104,42.6037246 L80.4680295,28 L64,41.0662625 L87.7279348,55 C87.7279348,54.9995669 104,42.6037246 104,42.6037246 Z M64,68.9374258 L80.4680295,82 L104,67.3921433 L87.7279348,55 C87.7279348,54.9995669 63.9995606,68.9374258 64,68.9374258 Z M64.0019774,80 L47.19242,91.5837408 L40,87.67306 L40,96.0490159 L64.0019774,108 L88,96.0490159 L88,87.67306 L80.80758,91.5837408 L64.0019774,80 Z" id="Shape" fill="#FFFFFF" fill-rule="nonzero"></path>
    </g>
</svg>