<?xml version="1.0" encoding="UTF-8"?>
<svg width="128px" height="128px" viewBox="0 0 128 128" version="1.1" xmlns="http://www.w3.org/2000/svg" xmlns:xlink="http://www.w3.org/1999/xlink">
    <!-- Generator: Sketch 49.1 (51147) - http://www.bohemiancoding.com/sketch -->
    <title>googledrive</title>
    <desc>Created with Sketch.</desc>
    <defs></defs>
    <g id="googledrive" stroke="none" stroke-width="1" fill="none" fill-rule="evenodd">
        <path d="M63.9997803,0 C99.3479725,0 128,28.6559819 128,64.0002197 C128,99.3484119 99.3479725,128 63.9997803,128 C28.6515881,128 0,99.3479725 0,64.0002197 C0,28.6559819 28.6520275,0 63.9997803,0 Z" id="Shape" fill="#27A364" fill-rule="nonzero"></path>
        <path d="M83.7593549,70.7343947 L84.0381265,71.2085117 L84.5956697,71.2085117 L111.340191,71.0930656 L112.991483,71.080733 L112.161363,69.6618078 L80.5135587,15.4374197 L80.2378845,14.9633028 L79.6803413,14.9633028 L52.9292809,15.0725826 L51.2779894,15.0787489 L52.1115509,16.4976741 C52.1115509,16.4976741 83.7593549,70.7343947 83.7593549,70.7343947 Z" id="Shape" fill="#EEEEEE" fill-rule="nonzero"></path>
        <path d="M60.6521909,43.2960467 L60.3702293,42.8212599 L46.5954263,19.4967185 L45.7615913,18.0880366 L44.937396,19.499786 L13.2819616,73.6517276 L13,74.1200385 L13.2819616,74.5917577 L27.0567646,97.9255018 L27.8905996,99.3311161 L28.7178934,97.9193667 L60.3795248,43.767766 C60.3795248,43.767766 60.6521909,43.2960467 60.6521909,43.2960467 Z" id="Shape" fill="#FFFFFF" fill-rule="nonzero"></path>
        <polygon id="Shape" fill="#FFFFFF" fill-rule="nonzero" points="48.510126 77.4579793 47.9595467 77.4579793 47.6842571 77.9245653 34.1304525 101.034915 33.3107699 102.45585 98.3396126 102.45585 98.6149022 101.976967 112.1718 78.866618 112.991483 77.4579793 48.510126 77.4579793"></polygon>
    </g>
</svg>