<?xml version="1.0" encoding="UTF-8"?>
<svg width="128px" height="128px" viewBox="0 0 128 128" version="1.1" xmlns="http://www.w3.org/2000/svg" xmlns:xlink="http://www.w3.org/1999/xlink">
    <!-- Generator: Sketch 49.1 (51147) - http://www.bohemiancoding.com/sketch -->
    <title>instagram</title>
    <desc>Created with Sketch.</desc>
    <defs></defs>
    <g id="instagram" stroke="none" stroke-width="1" fill="none" fill-rule="evenodd">
        <path d="M63.499782,0 C98.567457,0 127,28.6559819 127,64.0002197 C127,99.3444575 98.5678929,128 63.500218,128 C28.432543,128 7.60502772e-14,99.3440181 7.60502772e-14,64.0002197 C7.60502772e-14,28.6564213 28.4281835,0 63.499782,0 Z" id="Shape" fill="#3F729B" fill-rule="nonzero"></path>
        <path d="M86.0826825,28 L41.9129246,28 C34.2386763,28 28,34.2426298 28,41.9129246 L28,86.0870754 C28,93.7613237 34.2426298,100 41.9129246,100 L86.0870754,100 C93.7613237,100 100,93.7573702 100,86.0870754 L100,41.9129246 C99.9995607,34.2426298 93.7569309,28 86.0826825,28 Z M90.4343651,36.0039571 L92,36 L92,47.9599897 L80.0397192,48 L80,36.0400103 C80,36.0400103 90.4343651,36.0039571 90.4343651,36.0039571 Z M64.0000035,52 C73.9483595,52 76,61.3387309 76,64.0039387 C76,70.6135667 70.6135683,76 64.0000035,76 C57.3824999,76 52.000007,70.6135667 52.000007,64.0039387 C51.9956306,61.3387309 54.0516475,52 64.0000035,52 Z M92,85.1259317 C92,88.915774 88.9282719,92 85.1411022,92 L42.8588978,92 C39.0756567,92 36,88.9197135 36,85.1259317 L36,56 L45.9345545,56 C45.0126432,58.2753061 44.4918856,61.3836071 44.4918856,63.989835 C44.4918856,74.8051992 53.2661938,83.6078937 64.0554369,83.6078937 C74.84468,83.6078937 83.6146231,74.8051992 83.6146231,63.989835 C83.6146231,61.3836071 83.0938655,58.2753061 82.1758828,56 L91.9912698,56 L91.9912698,85.1259317 L92,85.1259317 Z" id="Shape" fill="#FFFFFF" fill-rule="nonzero"></path>
    </g>
</svg>