<?xml version="1.0" encoding="UTF-8"?>
<svg width="128px" height="128px" viewBox="0 0 128 128" version="1.1" xmlns="http://www.w3.org/2000/svg" xmlns:xlink="http://www.w3.org/1999/xlink">
    <!-- Generator: Sketch 49.1 (51147) - http://www.bohemiancoding.com/sketch -->
    <title>magloft</title>
    <desc>Created with Sketch.</desc>
    <defs></defs>
    <g id="magloft" stroke="none" stroke-width="1" fill="none" fill-rule="evenodd">
        <path d="M64.1617699,127.757173 C28.9569042,127.757173 0.417721599,99.2179909 0.417721599,64.0131248 C0.417721599,28.808259 28.9569042,0.269076448 64.1617699,0.269076448 C99.366636,0.269076448 127.905819,28.808259 127.905819,64.0131248 C127.905819,99.2179909 99.366636,127.757173 64.1617699,127.757173 Z" id="circle" fill="#2A709F" fill-rule="nonzero"></path>
        <path d="M15.9576327,105.621164 L26.5985953,76.9055566 C26.5985953,76.9055566 13.069174,62.5520471 9.94621786,60.2532998 C1.96373445,54.3775487 4.4204019,43.0385946 6.64697792,36.6968932 C16.8689161,15.1595642 38.8030656,0.269076448 64.2123172,0.269076448 C68.7084235,0.269076448 73.095723,0.735304458 77.3285788,1.62208809 L102.796475,26.8193713 L106.920074,16.7212735 C119.808151,28.3858226 127.905819,45.2530674 127.905819,64.0131248 C127.905819,99.2179903 99.3892661,127.757173 64.2123172,127.757173 C44.9237899,127.757173 27.6378062,119.176461 15.9576327,105.621164 Z" id="shadow" fill="#11496F" fill-rule="nonzero"></path>
        <path d="M15.327942,104.879061 L50.4588283,10.6126658 C50.4588283,10.6126658 11.5185123,24.064497 24.7473463,64.0146084 C0.0062920823,64.0146084 3.54930721,45.5196339 6.64697792,36.6968932 C16.868916,15.1595642 38.8030656,0.269076448 64.2123172,0.269076448 C68.5906455,0.269076448 72.8657932,0.711198228 76.9956164,1.55326545 L72.3470007,97.1807281 L106.500102,16.3445214 C119.631991,28.0210832 127.905819,45.0501094 127.905819,64.0131248 C127.905819,87.630445 115.07209,108.247908 96.0033186,119.261591 L104.834282,55.0515401 L75.039139,126.839988 C71.5203413,127.443024 67.9029867,127.757173 64.2123172,127.757173 C57.8918613,127.757173 51.7864263,126.835829 46.0227902,125.120019 L49.3513659,54.5530409 L26.5810878,115.447501 C22.4162332,112.390337 18.6364032,108.838719 15.327942,104.879061 Z" stroke="#FFFFFF" stroke-width="3" fill="#FFFFFF" fill-rule="nonzero"></path>
    </g>
</svg>