<?xml version="1.0" encoding="UTF-8"?>
<svg width="128px" height="128px" viewBox="0 0 128 128" version="1.1" xmlns="http://www.w3.org/2000/svg" xmlns:xlink="http://www.w3.org/1999/xlink">
    <!-- Generator: Sketch 49.1 (51147) - http://www.bohemiancoding.com/sketch -->
    <title>pinterest</title>
    <desc>Created with Sketch.</desc>
    <defs></defs>
    <g id="pinterest" stroke="none" stroke-width="1" fill="none" fill-rule="evenodd">
        <path d="M63.499782,0 C98.5718165,0 127,28.6559819 127,64.0002197 C127,99.3484119 98.5718165,128 63.499782,128 C28.4277476,128 -4.03566069e-14,99.3479725 -4.03566069e-14,64.0002197 C-4.03566069e-14,28.6559819 28.4281835,0 63.499782,0 Z" id="Shape" fill="#C8232C" fill-rule="nonzero"></path>
        <path d="M65.9345647,28 C43.3699916,28 32,43.6561468 32,56.7080619 C32,64.6121488 35.0896764,71.6440575 41.7253587,74.264107 C42.8099108,74.6920675 43.7907116,74.2799249 44.1028445,73.1159955 L45.0713358,69.4238479 C45.391382,68.2757363 45.2674081,67.8679876 44.3907981,66.8639941 C42.4735985,64.6837685 41.2571593,61.8558901 41.2571593,57.8517796 C41.2571593,46.2397273 50.2342783,35.8434518 64.6341574,35.8434518 C77.3894037,35.8434518 84.3930512,43.3837284 84.3930512,53.4517837 C84.3930512,66.7001037 78.3337157,77.8841955 69.3368137,77.8841955 C64.3739001,77.8841955 60.6520446,73.9121601 61.8447441,69.0279625 C63.269565,63.2118305 66.0391952,56.9277541 66.0391952,52.7237237 C66.0391952,48.9678654 63.9540593,45.8236303 59.6316776,45.8236303 C54.5527033,45.8236303 50.4747525,50.9077478 50.4747525,57.7195249 C50.4747525,62.0597645 51.9914548,64.991777 51.9914548,64.991777 L45.8802437,90.0358119 C44.067235,97.4640454 45.6120732,106.576 45.7400037,107.496071 C45.8200152,108.040029 46.5405587,108.16789 46.8685181,107.760141 C47.3367175,107.16829 53.3841832,99.9399768 55.4411831,92.7160571 C56.0254432,90.6720406 58.7832036,80.0837541 58.7832036,80.0837541 C60.4322327,83.1357185 65.2549063,85.8159636 70.3817996,85.8159636 C85.6420225,85.8159636 96,72.3479514 96,54.3235225 C95.9951641,40.6960137 84.0686088,28 65.9345647,28 Z" id="Shape" fill="#FFFFFF" fill-rule="nonzero"></path>
    </g>
</svg>