<?xml version="1.0" encoding="UTF-8"?>
<svg width="128px" height="128px" viewBox="0 0 128 128" version="1.1" xmlns="http://www.w3.org/2000/svg" xmlns:xlink="http://www.w3.org/1999/xlink">
    <!-- Generator: Sketch 49.1 (51147) - http://www.bohemiancoding.com/sketch -->
    <title>unsplash</title>
    <desc>Created with Sketch.</desc>
    <defs></defs>
    <g id="unsplash" stroke="none" stroke-width="1" fill="none" fill-rule="evenodd">
        <path d="M63.9999998,128 C28.653776,128 3.55271368e-14,99.3462241 3.55271368e-14,63.9999998 C3.55271368e-14,28.653776 28.653776,6.39488462e-14 63.9999998,6.39488462e-14 C99.3462241,6.39488462e-14 128,28.653776 128,63.9999998 C128,99.3462241 99.3462241,128 63.9999998,128 Z" id="circle" fill="#9729D1" fill-rule="nonzero"></path>
        <path d="M74.8,67.8375 C74.8,73.9125 69.85,78.6375 64,78.6375 C58.15,78.6375 53.2,73.9125 53.2,67.8375 C53.2,61.7625 58.15,57.0375 64,57.0375 C70.075,57.2625 74.8,61.9875 74.8,67.8375 Z M100,51.1875 L100,84.7125 C100,89.8875 95.725,94.3875 90.325,94.3875 L37.675,94.3875 C32.275,94.3875 28,90.1125 28,84.7125 L28,50.9625 C28,45.7875 32.275,41.2875 37.675,41.2875 L46,41.2875 L47.8,36.1125 C48.7,33.6375 51.625,31.6125 54.325,31.6125 L73.675,31.6125 C76.375,31.6125 79.3,33.6375 80.2,36.1125 L82,41.5125 L90.325,41.5125 C95.725,41.5125 100,45.7875 100,51.1875 Z M80.65,68.0625 C80.65,58.8375 73.225,51.1875 63.775,51.1875 C54.55,51.1875 46.9,58.8375 46.9,68.0625 C46.9,77.2875 54.325,84.9375 63.775,84.9375 C73.225,84.7125 80.65,77.2875 80.65,68.0625 Z" id="Shape" fill="#FFFFFF" fill-rule="nonzero"></path>
    </g>
</svg>